<svg width="96" height="96" xmlns="http://www.w3.org/2000/svg" xmlns:xlink="http://www.w3.org/1999/xlink" xml:space="preserve" overflow="hidden"><defs><clipPath id="clip0"><rect x="0" y="0" width="96" height="96"/></clipPath></defs><g clip-path="url(#clip0)"><path d="M73 82 23 82 23 20 34 20 34 26 62 26 62 20 73 20ZM48 12C49.6569 12 51 13.3431 51 15 51 16.6569 49.6569 18 48 18 46.3431 18 45 16.6569 45 15 44.9727 13.3704 46.2716 12.0273 47.9012 12 47.9341 11.9994 47.9671 11.9994 48 12ZM75 14 58 14 58 12C58 9.79086 56.2091 8 54 8L42 8C39.7909 8 38 9.79086 38 12L38 14 21 14C18.7909 14 17 15.7909 17 18L17 84C17 86.2091 18.7909 88 21 88L75 88C77.2091 88 79 86.2091 79 84L79 18C79 15.7909 77.2091 14 75 14Z" fill="#4D1434"/><path d="M41.061 57.061 38.939 54.939 36 57.879 33.061 54.939 30.939 57.061 33.879 60 30.939 62.939 33.061 65.061 36 62.121 38.939 65.061 41.061 62.939 38.121 60 41.061 57.061Z" fill="#4D1434"/><path d="M38.939 66.939 36 69.879 33.061 66.939 30.939 69.061 33.879 72 30.939 74.939 33.061 77.061 36 74.121 38.939 77.061 41.061 74.939 38.121 72 41.061 69.061 38.939 66.939Z" fill="#4D1434"/><path d="M50 58 67 58 67 62 50 62Z" fill="#4D1434"/><path d="M50 70 67 70 67 74 50 74Z" fill="#4D1434"/><path d="M50 34 67 34 67 38 50 38Z" fill="#4D1434"/><path d="M50 46 67 46 67 50 50 50Z" fill="#4D1434"/><path d="M29.707 35.8 31.8 33.707 34.4 36.307 41 29.707 43.093 31.8 34.4 40.493 29.707 35.8Z" fill="#4D1434"/><path d="M29.707 47.8 31.8 45.707 34.4 48.307 41 41.707 43.093 43.8 34.4 52.493 29.707 47.8Z" fill="#4D1434"/></g></svg>